<svg viewBox="0 0 56.693 56.693" xml:space="preserve" xmlns="http://www.w3.org/2000/svg"><path d="m29.394 31.666 9.915 6.894V24.836l-4.386 3.02z" fill="#898989" class="fill-000000"></path><path d="M28.347 3.923c-13.6 0-24.625 11.023-24.625 24.623 0 13.6 11.026 24.625 24.625 24.625s24.624-11.025 24.624-24.625S41.946 3.923 28.347 3.923zm11.567 35.786v.001H15.907a2.452 2.452 0 0 1-2.445-2.445V20.563c0-1.345 1.1-2.445 2.445-2.445l.01.007-.01-.008h24.952c1.345 0 2.445 1.1 2.445 2.445v.709l.004 15.996c-.059 1.778-.829 2.413-3.394 2.442z" fill="#898989" class="fill-000000"></path><path d="M28.342 32.262a.599.599 0 0 1-.342-.107l-.178-.125-10.184 7.082h21.415l-10.186-7.083s-.406.233-.525.233zM40.858 18.118v-.001l-.002.002zM39.037 18.715H17.719l10.624 7.877zM27.288 31.659l-9.906-6.823-.006 13.729 9.922-6.899z" fill="#898989" class="fill-000000"></path></svg>